<svg width="340" height="358" viewBox="0 0 340 358" fill="none" xmlns="http://www.w3.org/2000/svg">
<circle opacity="0.1" cx="170" cy="187.351" r="170" fill="white"/>
<path d="M219.055 242.827C216.315 242.827 216.315 247.188 219.055 247.188C221.795 247.096 221.795 242.827 219.055 242.827Z" fill="#FFF1CE"/>
<path d="M57.0552 204.218C54.3149 204.218 54.3149 208.58 57.0552 208.58C59.7954 208.487 59.7954 204.218 57.0552 204.218Z" fill="#FFF1CE"/>
<path d="M286.581 287.564C285.394 287.843 284.206 289.142 283.476 289.791C282.106 290.998 280.644 291.926 279 292.761C279.548 293.596 280.827 294.06 281.74 294.246C282.745 294.432 283.658 294.246 284.663 294.06C285.12 293.968 285.577 293.782 286.033 293.596C287.403 292.761 289.778 289.327 288.043 287.935C287.586 287.564 287.038 287.471 286.581 287.564Z" fill="#7CA661"/>
<path d="M153.016 230.646H152.925C152.377 230.739 151.92 231.388 152.012 231.945C152.012 232.502 152.377 233.152 152.925 233.244H153.016C153.839 233.43 154.661 232.873 154.661 231.945C154.661 231.017 153.839 230.553 153.016 230.646Z" fill="#FFF1CE"/>
<path d="M168.658 3.99052C167.654 3.06249 167.197 1.39204 166.74 0C166.009 0.742421 165.096 1.20644 164 1.29925C164.457 3.3409 165.644 5.19695 167.471 6.12498C167.562 5.47536 168.11 4.45453 168.658 3.99052Z" fill="#AEDC90"/>
<path d="M60.8496 117.857C58.3835 117.857 58.3835 121.755 60.8496 121.755C63.3158 121.755 63.3158 117.857 60.8496 117.857Z" fill="#FFF1CE"/>
<path d="M4.84964 134.113C2.38345 134.113 2.38345 138.011 4.84964 138.011C7.31583 138.011 7.31583 134.113 4.84964 134.113Z" fill="#FFF1CE"/>
<path d="M140.129 120.363L137.754 117.857C137.754 117.857 137.389 123.89 132 126.117L134.192 127.787C134.192 127.787 138.759 125.931 140.129 120.363Z" fill="#AEDC90"/>
<path d="M285.85 95.5049C283.383 95.5049 283.383 99.4026 285.85 99.4026C288.316 99.4026 288.316 95.5049 285.85 95.5049Z" fill="#FFF1CE"/>
<path d="M48.7544 79.2537C48.1151 78.6041 47.293 78.2329 46.3796 78.2329C45.4662 78.2329 44.5528 78.6041 44.0047 79.2537C43.4567 79.9033 43 80.8314 43 81.6666C43 82.5946 43.3654 83.5226 44.0047 84.0795C44.6441 84.7291 45.4662 85.1003 46.3796 85.1003C47.293 85.1003 48.2064 84.7291 48.7544 84.0795C49.3938 83.5226 49.7592 82.5018 49.7592 81.6666C49.6678 80.8314 49.3938 79.9033 48.7544 79.2537Z" fill="#FFF1CE"/>
<path d="M195 60.9604C197.284 72.2824 203.951 82.0267 210.437 91.4925C212.994 95.2046 215.734 99.8447 219.479 102.536C220.575 101.144 215.643 94.1838 214.729 92.6061C212.72 88.9868 210.619 85.4603 208.427 81.9338C204.134 74.8808 199.658 67.9206 195 60.9604Z" fill="#7CA661"/>
<path d="M210.071 84.9034C208.245 78.1288 207.24 71.0758 204.408 64.5796C212.537 75.8087 218.475 88.2442 221.58 102.443C219.388 101.329 217.744 100.587 216.282 98.5453C213.177 94.6476 211.35 89.7291 210.071 84.9034Z" fill="#AEDC90"/>
<path d="M197.832 82.0264C200.389 86.6665 203.495 90.9354 207.331 94.5547C209.797 96.8748 217.927 103.835 221.489 102.536C218.84 98.638 213.268 94.4619 209.797 91.3994C205.961 88.1513 201.942 84.9961 197.832 82.0264Z" fill="#AEDC90"/>
<path d="M235.007 106.527C235.19 114.879 223.589 119.612 217.104 117.384C214.273 116.456 212.446 114.229 212.903 110.331C213.359 106.527 215.095 102.814 217.926 100.402C220.849 97.9887 224.868 96.8751 228.522 98.0815C232.084 99.2879 234.916 102.722 235.007 106.527Z" fill="#EA7273"/>
<path d="M235.007 106.527C235.19 114.879 223.589 119.612 217.104 117.384C217.287 117.292 217.561 117.199 217.835 117.013C220.941 115.9 223.955 115.621 226.786 113.672C230.075 111.352 232.449 107.176 231.353 103.278C230.805 101.33 229.527 99.752 228.43 98.0815C232.084 99.288 234.916 102.722 235.007 106.527Z" fill="#EA6061"/>
<path d="M215.369 112.002C215.552 112.28 215.734 112.559 216.008 112.744C216.374 113.023 216.922 113.116 217.47 113.023C218.84 112.837 219.936 111.816 220.393 110.517C220.849 109.218 220.667 107.733 220.027 106.619C219.114 104.949 217.013 104.114 215.734 105.877C214.456 107.455 214.364 110.239 215.369 112.002Z" fill="#EA8889"/>
<path d="M222.493 102.443C222.219 101.979 221.671 101.793 221.123 101.793C220.758 101.793 220.21 101.886 219.936 102.165C219.57 102.443 219.296 103 219.479 103.557C219.57 104.206 219.936 104.67 220.575 104.856C221.123 105.042 221.763 104.949 222.219 104.485C222.767 104.021 222.859 103.093 222.493 102.443Z" fill="#EA8889"/>
<path d="M221.854 105.413C221.854 105.413 221.763 105.413 221.671 105.413H221.58C221.489 105.413 221.397 105.413 221.306 105.413C221.306 105.413 221.215 105.413 221.215 105.506C220.94 105.599 220.849 105.877 220.758 106.155C220.758 106.341 220.758 106.527 220.758 106.712V106.805C220.849 106.991 221.032 107.176 221.215 107.269C221.306 107.362 221.489 107.362 221.58 107.362C222.128 107.548 222.676 107.084 222.767 106.434C222.859 105.97 222.402 105.413 221.854 105.413Z" fill="#EA8889"/>
<path d="M227.517 114.786C227.7 115.621 229.161 115.528 229.892 115.714C230.897 115.992 231.536 117.013 231.536 118.034C231.536 118.962 231.079 119.89 231.536 120.632C231.993 121.282 232.997 121.282 233.728 121.189C232.997 121.189 232.267 120.54 232.084 119.797C231.901 119.055 232.267 118.22 232.358 117.477C232.541 116.364 232.267 115.064 231.536 114.229C230.714 113.394 227.7 112.466 227.426 114.322C227.517 114.6 227.517 114.693 227.517 114.786Z" fill="#EA6061"/>
<path d="M232.815 107.919C232.541 108.383 232.541 108.847 232.358 109.311C232.176 109.96 231.81 110.61 231.445 111.26C230.714 112.373 229.801 113.116 228.705 113.951C228.431 114.136 228.613 114.6 228.979 114.415C230.257 113.858 231.262 112.744 231.993 111.631C232.632 110.703 233.546 109.032 233.18 107.919C233.089 107.733 232.906 107.826 232.815 107.919Z" fill="white"/>
<path d="M232.906 104.113C232.815 104.02 232.724 104.021 232.632 104.021H232.541C232.45 104.021 232.45 104.02 232.45 104.113C232.267 104.485 232.541 104.763 232.724 105.134C232.906 105.598 232.906 106.062 232.906 106.619C232.906 106.99 233.454 106.99 233.454 106.619C233.454 105.691 233.272 104.949 232.906 104.113Z" fill="white"/>
<path d="M33.9352 229.618C32.3824 230.546 30.921 231.381 29.3682 232.309C28.4548 232.866 27.5414 233.33 26.902 234.165C26.1713 235.001 25.4406 236.486 26.628 237.228C27.8154 237.97 30.0076 236.764 31.0123 236.114C32.0171 235.465 33.0218 234.722 33.6612 233.609C34.94 231.567 33.7525 229.711 33.9352 229.618Z" fill="#7CA661"/>
<path d="M76.1511 112.63C76.6078 114.95 78.252 116.806 80.2614 118.013C82.1796 119.126 84.2804 119.312 86.4726 119.219C86.5639 119.219 86.6552 119.219 86.7466 119.219C86.7466 119.126 86.7466 119.033 86.7466 118.941C86.5639 115.971 85.5592 113.187 83.9151 110.681C82.3623 108.361 80.2614 106.505 78.1606 104.649C76.6078 106.969 75.6031 110.031 76.1511 112.63Z" fill="#AEDC90"/>
<path d="M76.1511 112.63C76.6078 114.95 78.252 116.806 80.2614 118.013C82.1796 119.126 84.2804 119.312 86.4726 119.219C86.5639 119.219 86.6552 119.219 86.7466 119.219C77.2472 113.836 78.1606 104.649 78.1606 104.649C76.6078 106.969 75.6031 110.031 76.1511 112.63Z" fill="#7CA661"/>
<path d="M78.5258 109.289C78.9825 111.516 80.2613 113.744 81.7228 115.414C83.0015 116.899 84.5543 118.291 86.3811 119.219C86.4725 119.219 86.5638 119.219 86.6552 119.219C86.6552 119.126 86.6552 119.033 86.6552 118.941C84.9197 117.92 83.2756 116.806 81.9968 115.136C81.2661 114.208 80.6267 113.28 80.0786 112.259C79.5306 111.238 79.2566 110.217 78.8912 109.196C78.7999 109.011 78.5258 109.104 78.5258 109.289Z" fill="#39700B"/>
<path d="M256.595 59.7974C256.139 62.1175 254.495 63.9736 252.485 65.18C250.567 66.2936 248.466 66.4792 246.274 66.3864C246.183 66.3864 246.091 66.3864 246 66.3864C246 66.2936 246 66.2008 246 66.108C246.183 63.1383 247.187 60.3542 248.832 57.8486C250.384 55.5285 252.485 53.6725 254.586 51.8164C256.139 54.1365 257.143 57.199 256.595 59.7974Z" fill="#AEDC90"/>
<path d="M256.595 59.7974C256.139 62.1175 254.495 63.9736 252.485 65.18C250.567 66.2936 248.466 66.4792 246.274 66.3864C246.183 66.3864 246.091 66.3864 246 66.3864C255.499 61.0039 254.586 51.8164 254.586 51.8164C256.139 54.1365 257.143 57.199 256.595 59.7974Z" fill="#7CA661"/>
<path d="M254.221 56.4567C253.764 58.6839 252.485 60.9112 251.024 62.5816C249.745 64.0665 248.192 65.4585 246.365 66.3865C246.274 66.3865 246.183 66.3865 246.091 66.3865C246.091 66.2937 246.091 66.2009 246.091 66.1081C247.827 65.0873 249.471 63.9737 250.75 62.3032C251.481 61.3752 252.12 60.4472 252.668 59.4263C253.216 58.4055 253.49 57.3847 253.855 56.3639C253.947 56.1783 254.221 56.2711 254.221 56.4567Z" fill="#39700B"/>
<path d="M85.4 233.13H76.4V274.888H85.4V233.13Z" fill="#D2953D"/>
<path d="M82.5 233.13H76.4V274.888H82.5V233.13Z" fill="#EDC75E"/>
<path d="M93.1 237.703H84.1V279.461H93.1V237.703Z" fill="#D2953D"/>
<path d="M90.2 237.703H84.1V279.461H90.2V237.703Z" fill="#EDC75E"/>
<path d="M105.43 234.176L96.5536 232.667L89.768 273.852L98.6447 275.362L105.43 234.176Z" fill="#D2953D"/>
<path d="M102.544 233.73L96.528 232.707L89.7423 273.893L95.7588 274.916L102.544 233.73Z" fill="#EDC75E"/>
<path d="M108.856 238.938L99.8577 239.137L100.75 280.886L109.748 280.688L108.856 238.938Z" fill="#D2953D"/>
<path d="M105.955 238.97L99.8567 239.104L100.749 280.854L106.847 280.72L105.955 238.97Z" fill="#EDC75E"/>
<path d="M117.455 234.874L108.457 235.073L109.35 276.822L118.348 276.624L117.455 234.874Z" fill="#D2953D"/>
<path d="M114.555 234.905L108.456 235.04L109.349 276.79L115.448 276.655L114.555 234.905Z" fill="#EDC75E"/>
<path d="M126.61 241.948L117.659 240.999L113.392 282.531L122.344 283.48L126.61 241.948Z" fill="#D2953D"/>
<path d="M123.709 241.695L117.642 241.052L113.376 282.584L119.443 283.228L123.709 241.695Z" fill="#EDC75E"/>
<path d="M118.6 262.29C118.6 265.541 110.2 268.183 99.9 268.183C89.6 268.183 81.2 265.541 81.2 262.29H74L78.2 318.374H121.7L125.9 262.29H118.6Z" fill="#DB5955"/>
<path d="M220.9 303.641C221.6 300.39 221.9 297.037 221.9 293.583C221.9 267.065 204.9 248.777 178.8 248.777C152.7 248.777 121.2 267.065 121.2 293.583C121.2 297.037 110.6 300.39 111.3 303.641H220.9Z" fill="#935A40"/>
<path d="M238.6 286.572C239.9 286.064 240.8 284.744 240.8 283.22C240.8 281.188 239.2 279.562 237.2 279.562C235.2 279.562 233.6 281.188 233.6 283.22C233.6 283.321 233.6 283.423 233.7 283.524H201.9V289.519H233.7C233.7 289.62 233.6 289.722 233.6 289.824C233.6 291.856 235.2 293.481 237.2 293.481C239.2 293.481 240.8 291.856 240.8 289.824C240.8 288.401 239.9 287.182 238.6 286.572Z" fill="white"/>
<path d="M225.1 286.573C225.1 294.904 210.1 301.711 201.9 301.711C193.7 301.711 187 294.904 187 286.573C187 278.241 193.7 271.434 201.9 271.434C210.1 271.434 225.1 278.241 225.1 286.573Z" fill="#BC7253"/>
<path d="M141.3 279.664C141.3 279.664 130.9 284.947 133 291.652C134.4 296.123 166.4 293.989 167.8 289.62C169.2 285.353 141.6 284.337 141.6 284.337L141.3 279.664Z" fill="#BC7253"/>
<path d="M126.8 307.705C130.556 307.705 133.6 304.612 133.6 300.797C133.6 296.981 130.556 293.888 126.8 293.888C123.044 293.888 120 296.981 120 300.797C120 304.612 123.044 307.705 126.8 307.705Z" fill="#DB5955"/>
<path d="M125.2 302.93C127.464 302.93 129.3 301.065 129.3 298.765C129.3 296.464 127.464 294.599 125.2 294.599C122.936 294.599 121.1 296.464 121.1 298.765C121.1 301.065 122.936 302.93 125.2 302.93Z" fill="#DD7260"/>
<path d="M142 301.711C142 304.962 139.4 307.705 136.1 307.705C132.8 307.705 130.2 305.064 130.2 301.711C130.2 298.46 132.8 295.716 136.1 295.716C139.4 295.716 142 298.46 142 301.711Z" fill="#D2953D"/>
<path d="M134.8 304.048C136.678 304.048 138.2 302.501 138.2 300.593C138.2 298.685 136.678 297.139 134.8 297.139C132.922 297.139 131.4 298.685 131.4 300.593C131.4 302.501 132.922 304.048 134.8 304.048Z" fill="#EDC75E"/>
<path d="M148.8 307.705C152.556 307.705 155.6 304.612 155.6 300.797C155.6 296.981 152.556 293.888 148.8 293.888C145.044 293.888 142 296.981 142 300.797C142 304.612 145.044 307.705 148.8 307.705Z" fill="#DB5955"/>
<path d="M147.2 302.93C149.464 302.93 151.3 301.065 151.3 298.765C151.3 296.464 149.464 294.599 147.2 294.599C144.936 294.599 143.1 296.464 143.1 298.765C143.1 301.065 144.936 302.93 147.2 302.93Z" fill="#DD7260"/>
<path d="M158.1 307.705C161.358 307.705 164 305.021 164 301.711C164 298.4 161.358 295.716 158.1 295.716C154.841 295.716 152.2 298.4 152.2 301.711C152.2 305.021 154.841 307.705 158.1 307.705Z" fill="#D2953D"/>
<path d="M156.8 304.048C158.678 304.048 160.2 302.501 160.2 300.593C160.2 298.685 158.678 297.139 156.8 297.139C154.922 297.139 153.4 298.685 153.4 300.593C153.4 302.501 154.922 304.048 156.8 304.048Z" fill="#EDC75E"/>
<path d="M170.8 307.705C174.556 307.705 177.6 304.612 177.6 300.797C177.6 296.981 174.556 293.888 170.8 293.888C167.044 293.888 164 296.981 164 300.797C164 304.612 167.044 307.705 170.8 307.705Z" fill="#DB5955"/>
<path d="M169.1 302.93C171.364 302.93 173.2 301.065 173.2 298.765C173.2 296.464 171.364 294.599 169.1 294.599C166.836 294.599 165 296.464 165 298.765C165 301.065 166.836 302.93 169.1 302.93Z" fill="#DD7260"/>
<path d="M180.1 307.705C183.358 307.705 186 305.021 186 301.711C186 298.4 183.358 295.716 180.1 295.716C176.841 295.716 174.2 298.4 174.2 301.711C174.2 305.021 176.841 307.705 180.1 307.705Z" fill="#D2953D"/>
<path d="M178.7 304.048C180.578 304.048 182.1 302.501 182.1 300.593C182.1 298.685 180.578 297.139 178.7 297.139C176.822 297.139 175.3 298.685 175.3 300.593C175.3 302.501 176.822 304.048 178.7 304.048Z" fill="#EDC75E"/>
<path d="M192.8 307.705C196.556 307.705 199.6 304.612 199.6 300.797C199.6 296.981 196.556 293.888 192.8 293.888C189.044 293.888 186 296.981 186 300.797C186 304.612 189.044 307.705 192.8 307.705Z" fill="#DB5955"/>
<path d="M191.1 302.93C193.364 302.93 195.2 301.065 195.2 298.765C195.2 296.464 193.364 294.599 191.1 294.599C188.836 294.599 187 296.464 187 298.765C187 301.065 188.836 302.93 191.1 302.93Z" fill="#DD7260"/>
<path d="M207.9 301.711C207.9 304.962 205.3 307.705 202 307.705C198.8 307.705 196.1 305.064 196.1 301.711C196.1 298.46 198.7 295.716 202 295.716C205.3 295.818 207.9 298.46 207.9 301.711Z" fill="#D2953D"/>
<path d="M200.7 304.048C202.578 304.048 204.1 302.501 204.1 300.593C204.1 298.685 202.578 297.139 200.7 297.139C198.822 297.139 197.3 298.685 197.3 300.593C197.3 302.501 198.822 304.048 200.7 304.048Z" fill="#EDC75E"/>
<path d="M214.7 307.705C218.456 307.705 221.5 304.612 221.5 300.797C221.5 296.981 218.456 293.888 214.7 293.888C210.944 293.888 207.9 296.981 207.9 300.797C207.9 304.612 210.944 307.705 214.7 307.705Z" fill="#DB5955"/>
<path d="M213.1 302.93C215.364 302.93 217.2 301.065 217.2 298.765C217.2 296.464 215.364 294.599 213.1 294.599C210.836 294.599 209 296.464 209 298.765C209 301.065 210.836 302.93 213.1 302.93Z" fill="#DD7260"/>
<path d="M224 307.705C227.258 307.705 229.9 305.021 229.9 301.711C229.9 298.4 227.258 295.716 224 295.716C220.742 295.716 218.1 298.4 218.1 301.711C218.1 305.021 220.742 307.705 224 307.705Z" fill="#D2953D"/>
<path d="M222.7 304.048C224.578 304.048 226.1 302.501 226.1 300.593C226.1 298.685 224.578 297.139 222.7 297.139C220.822 297.139 219.3 298.685 219.3 300.593C219.3 302.501 220.822 304.048 222.7 304.048Z" fill="#EDC75E"/>
<path d="M228 318.679H111.1C103 318.679 96.4 311.973 96.4 303.743H242.7C242.7 311.973 236.1 318.679 228 318.679Z" fill="white"/>
<path d="M85.712 181.453C76.8436 179.562 70.0514 176.783 61.9858 171.743C54.6279 167.101 53.753 158.591 60.209 152.864C60.2457 152.771 60.3755 152.715 60.3755 152.715C61.2079 151.969 62.2655 151.75 63.3257 152.075C75.3772 155.486 86.8216 160.169 97.8449 166.202C98.8317 166.715 99.4121 167.713 99.5468 168.747C99.5101 168.84 99.5664 168.972 99.5664 168.972C100.591 177.651 94.1714 183.285 85.712 181.453Z" fill="#EADFD1"/>
<path d="M99.7559 168.995C99.7926 168.902 99.7363 168.77 99.7363 168.77C99.6384 167.646 99.0219 166.743 98.0361 166.232C87.0238 160.213 75.5909 155.54 63.5514 152.138C63.2726 152.024 62.8641 151.965 62.5119 152.038C62.4752 152.132 62.4752 152.132 62.4385 152.225C62.2038 153.647 62.1184 155.239 62.2555 156.813C62.2972 157.806 62.8207 158.67 63.5839 159.199C75.0514 167.356 82.9522 170.585 96.3025 172.571C97.2125 172.726 98.0832 172.432 98.7851 171.743C99.1178 171.445 99.4871 171.054 99.8197 170.756C99.8539 170.119 99.7584 169.538 99.7559 168.995Z" fill="#D1C3B4"/>
<path d="M69.3456 145.881C65.8115 144.436 61.8297 146.607 61.3088 150.412C61.074 151.837 60.9885 153.431 61.1257 155.007C61.1674 156.001 61.6912 156.867 62.4548 157.397C73.929 165.566 81.8344 168.8 95.1926 170.789C96.103 170.944 96.9743 170.649 97.6766 169.959C99.6735 168.17 101.112 166.152 102.086 163.944C103.06 161.737 101.942 160.736 99.7583 158.322L69.3456 145.881Z" fill="#DB5955"/>
<path d="M99.765 158.306C99.765 158.306 94.9025 154.472 84.7692 150.87C80.9762 149.536 69.4505 145.908 69.4505 145.908C64.3753 144.266 62.325 146.467 61.4689 150.025C61.2537 151.674 61.6894 153.589 63.0305 154.571C75.2149 164.222 83.5911 165.152 98.3026 167.26C99.0269 167.34 100.51 166.861 101.026 166.095C101.413 165.384 101.799 164.674 102.186 163.964C103.066 161.719 101.852 160.137 99.765 158.306Z" fill="#E18668"/>
<path d="M65.2897 159.377L64.1891 155.542C65.5676 151.194 71.3172 147.871 73.142 147.09C72.2638 146.84 71.4225 146.495 70.8248 146.36C63.3807 150.408 62.8211 154.327 62.7843 154.421L63.324 158.026C63.9047 158.482 64.6156 158.883 65.2897 159.377Z" fill="#F7E4D8"/>
<path d="M99.7542 158.232C99.7542 158.232 99.6605 158.194 99.5102 158.023C94.2454 163.409 93.8298 166.408 93.7559 166.596L94.6542 170.679C94.8416 170.755 94.9722 170.699 95.1595 170.776C95.5711 170.835 96.0196 170.8 96.3744 170.727L95.5328 166.777C96.3059 164.252 98.6857 161.51 100.844 159.333C100.486 158.859 100.186 158.518 99.7542 158.232Z" fill="#F7E4D8"/>
<path d="M79.3663 166.856L78.5455 163.135C80.0553 158.729 86.2288 153.503 87.9954 152.042C87.1536 151.697 86.3118 151.352 85.4331 151.102C76.9172 158.428 76.2835 162.536 76.2466 162.63L76.7104 165.878C77.5522 166.222 78.4876 166.605 79.3663 166.856Z" fill="#F7E4D8"/>
<path d="M70.6363 159.693C72.0538 155.798 78.2237 151.121 81.1073 149.573C80.136 149.285 79.0713 148.958 78.0434 148.537C68.7635 154.232 68.391 158.227 68.2239 158.377L68.6306 161.491C69.5847 162.1 70.4823 162.576 71.343 163.147L70.6363 159.693Z" fill="#F7E4D8"/>
<path d="M87.1598 165.332C88.3749 161.679 92.7067 157.553 95.3109 155.342C94.5992 154.942 93.8876 154.541 93.0454 154.197C85.3464 161.095 84.8799 165.054 84.8061 165.242L85.5704 168.832C86.3559 169.044 87.2349 169.294 88.1508 169.451L87.1598 165.332Z" fill="#F7E4D8"/>
<path d="M60.7745 178.309C51.9061 176.418 45.1139 173.638 37.0483 168.599C29.6904 163.957 28.8155 155.447 35.2715 149.72C35.3082 149.627 35.4379 149.571 35.4379 149.571C36.2703 148.825 37.328 148.606 38.3882 148.931C50.4397 152.342 61.8841 157.025 72.9074 163.058C73.8942 163.571 74.4745 164.569 74.6093 165.603C74.5726 165.696 74.6289 165.828 74.6289 165.828C75.6532 174.507 69.2339 180.141 60.7745 178.309Z" fill="#EADFD1"/>
<path d="M74.8184 165.851C74.8551 165.757 74.7988 165.626 74.7988 165.626C74.7009 164.502 74.0844 163.599 73.0987 163.088C62.0863 157.069 50.6534 152.396 38.6139 148.994C38.3351 148.88 37.9266 148.821 37.5744 148.894C37.5377 148.988 37.5377 148.988 37.501 149.081C37.2663 150.503 37.1809 152.095 37.318 153.669C37.3597 154.662 37.8832 155.526 38.6464 156.055C50.1139 164.212 58.0147 167.441 71.365 169.427C72.275 169.582 73.1457 169.288 73.8476 168.599C74.1803 168.301 74.5496 167.91 74.8822 167.612C74.8234 166.937 74.8209 166.394 74.8184 165.851Z" fill="#D1C3B4"/>
<path d="M44.4081 142.737C40.874 141.291 36.8922 143.463 36.3713 147.268C36.1365 148.693 36.051 150.287 36.1882 151.863C36.2299 152.857 36.7537 153.723 37.5173 154.253C48.9915 162.422 56.897 165.656 70.2551 167.645C71.1655 167.8 72.0368 167.505 72.7391 166.815C74.736 165.026 76.1749 163.008 77.1488 160.8C78.1226 158.592 77.0041 157.592 74.8208 155.178L44.4081 142.737Z" fill="#DB5955"/>
<path d="M74.8275 155.162C74.8275 155.162 69.965 151.328 59.8317 147.726C56.0387 146.392 44.5131 142.764 44.5131 142.764C39.4378 141.122 37.3875 143.323 36.5314 146.881C36.3162 148.53 36.7519 150.445 38.093 151.427C50.2774 161.078 58.6536 162.007 73.3651 164.116C74.0894 164.196 75.5722 163.717 76.0885 162.951C76.475 162.24 76.8616 161.53 77.2481 160.82C78.1288 158.575 76.915 156.993 74.8275 155.162Z" fill="#E18668"/>
<path d="M40.3522 156.233L39.2516 152.398C40.6301 148.05 46.3797 144.727 48.2045 143.946C47.3263 143.696 46.485 143.351 45.8873 143.216C38.4432 147.264 37.8836 151.183 37.8468 151.277L38.3865 154.882C38.9672 155.338 39.6781 155.739 40.3522 156.233Z" fill="#F7E4D8"/>
<path d="M74.8167 155.088C74.8167 155.088 74.723 155.05 74.5727 154.879C69.3078 160.265 68.8923 163.264 68.8184 163.452L69.7168 167.535C69.9041 167.611 70.0347 167.555 70.222 167.632C70.6336 167.691 71.0821 167.656 71.437 167.583L70.5953 163.633C71.3684 161.108 73.7482 158.366 75.9063 156.189C75.5488 155.715 75.2481 155.374 74.8167 155.088Z" fill="#F7E4D8"/>
<path d="M54.4286 163.712L53.6079 159.991C55.1177 155.585 61.2911 150.358 63.0578 148.898C62.216 148.553 61.3742 148.208 60.4954 147.958C51.9796 155.284 51.3459 159.392 51.309 159.486L51.7727 162.734C52.6146 163.078 53.4564 163.423 54.4286 163.712Z" fill="#F7E4D8"/>
<path d="M45.6988 156.548C47.1163 152.654 53.2862 147.977 56.1698 146.429C55.1985 146.141 54.1338 145.814 53.1059 145.393C43.826 151.088 43.4535 155.083 43.2864 155.233L43.693 158.347C44.6472 158.956 45.5448 159.432 46.4055 160.003L45.6988 156.548Z" fill="#F7E4D8"/>
<path d="M62.2223 162.188C63.4374 158.534 67.7693 154.409 70.3734 152.198C69.6617 151.798 68.9501 151.397 68.108 151.053C60.4089 157.95 59.9424 161.91 59.8686 162.098L60.6329 165.688C61.4184 165.9 62.2974 166.15 63.2133 166.307L62.2223 162.188Z" fill="#F7E4D8"/>
<path d="M105.314 162.165L96.5971 184.417C95.7144 186.67 101.224 191.106 108.867 194.237C116.511 197.367 123.455 198.141 124.374 195.794L133.091 173.542L105.314 162.165Z" fill="#332C5E"/>
<path d="M100.214 189.572C101.323 190.353 102.525 191.172 103.99 191.879L114.246 165.777L110.211 164.129L100.214 189.572Z" fill="#474C52"/>
<path d="M116.983 173.599C124.228 176.564 131.12 176.369 132.377 173.162C133.634 169.956 128.78 164.953 121.535 161.988C114.29 159.023 107.398 159.218 106.141 162.425C104.884 165.631 109.738 170.634 116.983 173.599Z" fill="#F2F8FB"/>
<path d="M118.562 169.571C121.438 170.747 124.082 170.905 124.467 169.924C124.852 168.942 122.832 167.192 119.956 166.016C117.08 164.839 114.436 164.682 114.051 165.663C113.666 166.645 115.686 168.394 118.562 169.571Z" fill="#DD7260"/>
<path d="M121.02 163.3C128.464 166.347 132.182 170.91 131.448 172.783C130.751 174.562 124.941 175.334 117.498 172.287C110.054 169.24 106.336 164.676 107.07 162.804C107.804 160.932 113.577 160.253 121.02 163.3ZM121.681 161.614C114.051 158.491 106.753 158.654 105.395 162.118C104.037 165.582 109.207 170.849 116.837 173.972C124.467 177.095 131.765 176.932 133.123 173.468C134.481 170.004 129.404 164.776 121.681 161.614Z" fill="#332C5E"/>
<path d="M124.559 198.719C116.759 202.074 106.656 195.869 106.656 195.869C106.656 195.869 109.164 184.241 116.965 180.886C124.766 177.531 134.869 183.735 134.869 183.735C134.869 183.735 132.36 195.364 124.559 198.719Z" fill="#579485"/>
<path d="M86.2056 162.268L77.489 184.521C76.6063 186.774 82.1158 191.21 89.7592 194.34C97.4025 197.471 104.346 198.245 105.266 195.898L113.983 173.645L86.2056 162.268Z" fill="#332C5E"/>
<path d="M113.362 173.304C112.114 176.488 105.225 176.711 97.9677 173.741C90.7108 170.771 85.8773 165.75 87.1254 162.566C88.3736 159.383 95.2629 159.16 102.52 162.129C109.777 165.099 114.61 170.12 113.362 173.304Z" fill="#F2F8FB"/>
<path d="M105.452 170.065C105.085 171.001 102.429 170.892 99.5466 169.712C96.6637 168.533 94.669 166.74 95.036 165.805C95.4396 164.776 98.0581 164.978 100.941 166.158C103.731 167.299 105.818 169.13 105.452 170.065Z" fill="#DD7260"/>
<path d="M101.875 163.498C109.319 166.545 113.037 171.109 112.303 172.981C111.569 174.853 105.796 175.532 98.3523 172.485C90.9086 169.438 87.1907 164.875 87.9246 163.002C88.6585 161.13 94.4313 160.451 101.875 163.498ZM102.536 161.813C94.9057 158.69 87.6075 158.853 86.2498 162.317C84.8921 165.78 90.062 171.047 97.6918 174.17C105.322 177.294 112.62 177.13 113.978 173.667C115.335 170.203 110.258 164.974 102.536 161.813Z" fill="#332C5E"/>
<path d="M109.471 208.863L33.6759 177.945C25.5948 174.648 21.6114 165.318 24.8113 157.183L130.051 200.112C126.722 208.304 117.552 212.16 109.471 208.863Z" fill="white"/>
<path d="M290.62 156.253C290.62 156.253 291.354 149.204 287.248 148.213C283.238 147.29 277.534 146.493 279.345 144.98C281.156 143.468 279.94 141.8 279.94 141.8L283.615 143.294C283.615 143.294 277.775 137.992 278.416 137.197C279.058 136.401 280.016 136.49 280.016 136.49C280.016 136.49 279.246 134.403 279.291 133.627C279.335 132.85 282.759 134.387 282.759 134.387L282.722 133.112L285.194 136.696L286.127 136.106C286.127 136.106 290.042 140.121 289.815 145.03C289.815 145.03 292.455 140.724 286.648 134.05C286.648 134.05 284.165 129.87 285.196 128.835L286.708 129.169L286.235 125.749C286.235 125.749 287.468 126.473 288.655 128.487C289.842 130.501 291.3 130.503 291.3 130.503C291.3 130.503 286.481 123.057 286.642 120.893L288.418 121.266C288.418 121.266 287.15 118.754 287.683 117.294L289.566 118.845C289.566 118.845 289.853 116.402 290.632 115.924L292.278 117.602C292.278 117.602 292.809 112.981 293.661 111.892C293.661 111.892 295.733 114.606 295.353 115.954L296.982 114.9L297.527 117.71L300.049 115.304C300.049 115.304 300.396 119.003 299.419 120.369L301.507 118.979C301.507 118.979 300.362 128.236 296.645 130.68C296.645 130.68 298.78 131.674 301.928 125.228C301.928 125.228 303.973 124.102 303.184 127.145C302.479 130.173 304.263 128.494 304.263 128.494C304.263 128.494 303.751 135.333 299.489 138.641C295.228 141.949 295.284 145.442 295.284 145.442C295.284 145.442 298.268 142.186 299.844 140.288C301.42 138.389 302.737 135.425 302.737 135.425L303.858 136.511L306.397 133.162C306.397 133.162 307.454 132.806 307.043 135.014C307.043 135.014 309.986 135.183 309.441 136.047C308.897 136.912 306.599 138.595 306.599 138.595L308.511 139.798C308.511 139.798 306.524 143.905 302.729 144.824L305.961 145.712L304.984 147.079C304.984 147.079 306.685 149.088 305.322 149.668C303.875 150.263 298.01 147.956 296.044 150.093C294.148 152.133 291.242 156.913 291.242 156.913L290.62 156.253Z" fill="#497C74"/>
<path d="M285.021 169.169C285.021 169.169 280.485 166.037 278.173 168.66C275.944 171.268 273.156 175.169 272.678 173.289C272.283 171.396 270.535 171.701 270.535 171.701L273.011 169.562C273.011 169.562 266.803 171.927 266.501 171.126C266.199 170.325 266.604 169.657 266.604 169.657C266.604 169.657 264.774 169.465 264.207 169.138C263.64 168.81 266.143 166.836 266.143 166.836L265.216 166.401L268.823 165.941L268.757 165.014C268.757 165.014 273.324 163.619 276.812 165.569C276.812 165.569 274.606 162.029 267.444 163.793C267.444 163.793 263.38 164.076 263.01 162.861L263.874 161.857L261.146 160.883C261.146 160.883 262.16 160.279 264.102 160.11C266.044 159.941 266.644 158.898 266.644 158.898C266.644 158.898 259.236 159.68 257.714 158.752L258.717 157.552C258.717 157.552 256.318 157.545 255.49 156.666L257.337 155.916C257.337 155.916 255.608 154.767 255.583 154.089L257.457 153.506C257.457 153.506 254.206 151.428 253.78 150.393C253.78 150.393 256.527 149.913 257.412 150.612L257.321 149.006L259.648 149.624L258.771 146.876C258.771 146.876 261.693 147.986 262.313 149.158L262.057 147.069C262.057 147.069 268.406 151.336 268.836 155.016C268.836 155.016 270.352 153.812 266.847 149.134C266.847 149.134 266.799 147.265 268.776 148.882C270.669 150.514 270.178 148.552 270.178 148.552C270.178 148.552 275.02 151.46 275.822 155.843C276.624 160.226 279.226 161.478 279.226 161.478C279.226 161.478 277.977 158.027 277.166 156.206C276.438 154.37 274.726 152.28 274.726 152.28L275.934 151.812L274.393 148.668C274.393 148.668 274.507 147.795 276.056 148.89C276.056 148.89 277.34 146.788 277.795 147.476C278.25 148.165 278.546 150.503 278.546 150.503L280.186 149.533C280.186 149.533 282.476 152.547 281.619 155.683L283.596 153.631L284.229 154.886C284.229 154.886 286.366 154.341 286.32 155.63C286.274 156.918 282.225 160.442 283.007 162.609C283.79 164.776 285.608 168.043 285.608 168.043L285.021 169.169Z" fill="#497C74"/>
<path d="M290.578 173.376C290.578 173.376 294.946 169.711 293.112 166.875C291.279 164.038 288.353 160.283 290.253 160.377C292.152 160.472 292.38 158.726 292.38 158.726L293.728 161.733C293.728 161.733 293.253 155.16 294.099 155.098C294.945 155.035 295.456 155.543 295.456 155.543C295.456 155.543 296.198 153.792 296.643 153.373C297.088 152.954 298.242 155.824 298.242 155.824L298.966 155.015L298.357 158.62L299.243 158.806C299.243 158.806 299.24 163.5 296.359 166.307C296.359 166.307 300.37 165.179 300.786 157.769C300.786 157.769 301.675 153.774 302.964 153.804L303.653 154.878L305.326 152.538C305.326 152.538 305.599 153.685 305.134 155.558C304.67 157.431 305.498 158.31 305.498 158.31C305.498 158.31 306.871 150.988 308.22 149.814L309.033 151.122C309.033 151.122 309.693 148.874 310.874 148.241L311.116 150.246C311.116 150.246 312.688 148.862 313.409 149.078L313.471 151.03C313.471 151.03 316.392 148.471 317.571 148.35C317.571 148.35 317.255 151.136 316.255 151.823L317.848 152.142L316.551 154.16L319.449 154.08C319.449 154.08 317.54 156.547 316.222 156.863L318.245 157.192C318.245 157.192 312.292 162.157 308.675 161.509C308.675 161.509 309.403 163.345 314.958 161.18C314.958 161.18 316.828 161.621 314.66 163.023C312.491 164.426 314.557 164.492 314.557 164.492C314.557 164.492 310.313 168.391 305.865 167.888C301.429 167.469 299.48 169.687 299.48 169.687C299.48 169.687 303.114 169.393 305.125 169.127C307.137 168.861 309.622 167.829 309.622 167.829L309.742 169.088L313.156 168.491C313.156 168.491 313.986 168.858 312.457 169.979C312.457 169.979 314.127 171.82 313.295 171.965C312.476 172.194 310.203 171.908 310.203 171.908L310.681 173.787C310.681 173.787 307.141 175.174 304.388 173.522L305.807 175.919L304.488 176.235C304.488 176.235 304.425 178.464 303.151 178.004C301.974 177.613 299.732 172.8 297.36 172.958C294.988 173.117 291.463 174.074 291.463 174.074L290.578 173.376Z" fill="#497C74"/>
<path d="M313.829 157.097C313.259 157.282 312.619 157.565 311.966 157.764C311.077 158.091 310.09 158.348 309.187 158.592C310.999 156.567 312.811 154.542 314.526 152.449C312.923 154.181 311.237 155.927 309.538 157.591C309.72 157.132 309.819 156.688 309.988 156.146C310.228 154.993 310.385 153.856 310.375 152.747C310.218 153.885 310.061 155.022 309.641 156.121C309.303 157.205 308.8 158.318 308.061 159.045L307.782 159.435C307.699 159.449 307.713 159.533 307.629 159.547C305.846 161.225 304.064 162.903 302.267 164.498C302.323 164.318 302.38 164.137 302.436 163.956C302.661 163.234 302.802 162.526 302.86 161.832C303.06 160.431 303.162 158.961 303.265 157.491C303.079 158.976 302.879 160.377 302.597 161.793C302.455 162.501 302.23 163.224 301.992 163.863C301.74 164.42 301.502 165.059 301.139 165.464C300.916 165.674 300.694 165.884 300.387 166.108C298.508 167.718 296.518 169.176 294.514 170.551C294.696 170.092 294.781 169.565 294.963 169.106C295.217 168.036 295.401 167.065 295.572 166.01C295.829 163.915 296.087 161.82 296.178 159.755C296.004 161.835 295.663 163.944 295.308 165.971C295.138 167.025 294.87 168.012 294.603 168.998C294.378 169.72 294.153 170.443 293.832 171.097C293.442 171.336 293.066 171.658 292.677 171.897C291.272 172.74 289.95 173.569 288.545 174.412L286.278 175.748C286.671 174.484 287.078 173.302 287.471 172.038C289.27 166.257 290.791 160.355 292.145 154.481C292.287 153.773 292.442 153.148 292.666 152.425C294.742 150.44 296.734 148.469 298.796 146.4C299.827 145.366 300.844 144.249 301.875 143.215C302.892 142.097 303.826 140.995 304.65 139.74C303.813 140.912 302.712 142.043 301.681 143.078C300.65 144.112 299.536 145.161 298.505 146.195C296.639 147.888 294.773 149.58 292.907 151.273C293.275 149.33 293.573 147.484 293.858 145.555C294.03 143.988 294.203 142.42 294.375 140.853C295.866 139.482 297.162 137.974 298.361 136.398C299.631 134.724 300.79 132.899 301.491 130.898C300.693 132.831 299.437 134.587 298.071 136.193C296.914 137.505 295.743 138.735 294.393 139.91C294.466 138.787 294.54 137.664 294.614 136.541C294.761 134.294 294.811 131.979 294.875 129.748L295.014 129.552C295.728 128.147 296.357 126.756 297.07 125.35C297.379 124.613 297.7 123.959 298.008 123.221C298.316 122.484 298.541 121.762 298.766 121.039C298.541 121.762 298.233 122.499 297.828 123.168C297.506 123.822 297.115 124.573 296.71 125.242C296.109 126.286 295.509 127.331 294.908 128.375C294.908 128.375 294.908 128.375 294.894 128.292C294.854 128.043 294.896 127.78 294.856 127.53C294.881 124.537 294.725 121.489 294.487 118.456C294.532 121.352 294.493 124.263 294.454 127.174C294.179 126.538 293.918 125.986 293.559 125.366C292.855 124.207 291.985 123.078 291.045 122.047C291.902 123.093 292.619 124.334 293.239 125.507C293.514 126.142 293.79 126.777 293.968 127.344C294.16 127.994 294.268 128.658 294.197 129.268L294.247 130.626C294.142 132.609 294.024 134.508 293.92 136.491C293.805 137.365 293.774 138.225 293.66 139.099C293.523 138.781 293.399 138.547 293.261 138.229C292.875 137.442 292.323 136.685 291.868 135.996C290.86 134.549 289.782 133.2 288.635 131.948C289.712 133.298 290.72 134.744 291.561 136.22C292.03 136.992 292.402 137.696 292.788 138.482C293.09 139.284 293.393 140.085 293.348 140.861L293.401 141.706C293.271 143.01 293.044 144.246 292.914 145.549C292.602 147.312 292.29 149.075 291.978 150.837C291.703 150.202 291.345 149.582 290.986 148.961C290.38 147.871 289.606 146.811 288.93 145.819C287.48 143.766 285.878 141.825 284.275 139.885C285.794 141.84 287.327 143.878 288.61 145.96C289.3 147.035 289.907 148.125 290.513 149.214C291.009 150.153 291.436 151.188 291.696 152.253C291.554 152.961 291.343 153.767 291.118 154.49C289.822 159.67 288.332 164.713 286.758 169.771C286.274 169.429 285.873 169.072 285.458 168.632C284.656 167.918 283.867 167.287 283.078 166.656C282.462 164.458 281.749 162.191 281.049 160.007C280.692 158.874 280.239 157.672 279.882 156.539C279.442 155.42 278.989 154.218 278.396 153.211C278.919 154.315 279.359 155.434 279.729 156.651C280.086 157.784 280.456 159.001 280.729 160.148C281.305 162.098 281.811 164.145 282.303 166.108C281.32 165.341 280.254 164.587 279.202 163.917C277.846 162.958 276.503 162.083 275.076 161.222C274.652 159.673 274.047 158.071 273.303 156.663C272.532 155.09 271.607 153.629 270.446 152.294C271.524 153.643 272.379 155.202 273.067 156.79C273.617 158.06 274.014 159.443 274.412 160.825C273.83 160.415 273.179 160.101 272.598 159.691C270.797 158.639 268.914 157.601 266.96 156.662L266.947 156.578C266.173 155.518 265.414 154.54 264.64 153.48C264.212 152.957 263.797 152.517 263.369 151.994C262.954 151.554 262.526 151.031 262.028 150.605C262.526 151.031 262.871 151.568 263.299 152.091C263.644 152.629 264.073 153.152 264.418 153.69C264.97 154.447 265.452 155.302 265.921 156.074C265.838 156.089 265.825 156.006 265.741 156.02C263.414 154.89 261.003 153.774 258.619 152.824C260.683 153.915 262.83 154.992 264.894 156.083C264.381 156.087 263.951 156.077 263.437 156.082C262.257 156.202 261.174 156.392 260.021 156.679C261.187 156.475 262.284 156.368 263.394 156.345C264.505 156.322 265.642 156.465 266.584 156.983L266.945 157.091C268.731 158.06 270.532 159.112 272.332 160.164C272.72 160.438 273.107 160.712 273.481 160.903C273.218 160.863 273.051 160.892 272.801 160.936C272.038 160.984 271.357 161.018 270.607 161.149C269.191 161.396 267.691 161.658 266.301 162.072C267.718 161.824 269.135 161.577 270.578 161.495C271.342 161.447 272.022 161.414 272.716 161.463C273.41 161.513 274.187 161.548 274.671 161.89L274.948 162.013C276.195 162.82 277.441 163.627 278.617 164.532C279.503 165.231 280.388 165.93 281.274 166.63C280.747 166.551 280.163 166.653 279.567 166.672C278.553 166.764 277.456 166.87 276.456 167.045C274.373 167.409 272.29 167.773 270.234 168.303C272.303 167.856 274.4 167.575 276.497 167.294C277.511 167.202 278.607 167.096 279.634 167.087C280.495 167.108 281.355 167.128 282.16 167.329C282.962 168.043 283.848 168.742 284.566 169.471C285.105 170.145 285.644 170.82 286.113 171.592C286.043 171.689 286.07 171.856 286.001 171.953C285.018 174.858 284.022 177.68 282.929 180.433C281.836 183.186 280.577 185.969 279.304 188.668L280.98 189.485C282.24 186.703 283.402 183.852 284.482 181.016C284.776 180.196 285.071 179.375 285.295 178.653C287.912 176.829 290.625 175.074 293.338 173.319C293.644 173.094 293.95 172.87 294.173 172.66C296.394 172.614 298.698 172.553 300.919 172.506C302.112 172.468 303.389 172.416 304.57 172.295C305.75 172.174 307.027 172.122 308.263 171.821C307.013 172.039 305.82 172.077 304.639 172.198C303.446 172.235 302.169 172.288 300.961 172.243C298.99 172.245 296.923 172.18 294.952 172.182C297.095 170.612 299.058 168.988 300.994 167.198C301.217 166.988 301.44 166.778 301.663 166.568C303.287 166.541 304.883 166.347 306.467 166.071C308.217 165.765 309.939 165.293 311.441 164.518C309.842 165.224 308.106 165.613 306.426 165.821C305.079 165.971 303.635 166.053 302.261 166.037C304.281 164.232 306.189 162.276 308.015 160.334C308.085 160.236 308.238 160.124 308.308 160.026L308.391 160.012C309.6 159.544 310.809 159.077 312.019 158.609C312.575 158.341 313.214 158.059 313.77 157.791C314.327 157.523 314.966 157.24 315.509 156.889C315.038 156.63 314.468 156.815 313.829 157.097Z" fill="#579485"/>
<path d="M247.318 166.007C247.097 165.705 246.82 165.583 246.529 165.378C245.781 164.997 245.382 164.128 245.414 163.269C245.4 163.186 245.47 163.088 245.443 162.922C245.558 159.403 243.599 156.333 241.155 156.079C240.891 156.04 240.544 156.016 240.294 156.06C239.793 156.148 239.169 156.001 238.754 155.562C237.109 153.888 235.028 153.229 233.259 153.966C231.491 154.703 230.51 156.583 230.47 158.979C230.482 159.575 230.145 160.146 229.685 160.483C229.462 160.693 229.239 160.903 229.015 161.112C227.45 163.094 228.113 166.648 230.658 169.103C230.755 169.171 230.852 169.24 230.865 169.323C231.474 169.899 231.789 170.782 231.494 171.602C231.367 171.88 231.338 172.227 231.308 172.574C231.341 174.36 233.127 175.839 235.113 175.917C235.975 175.936 236.712 175.722 237.339 175.355C237.966 174.989 238.744 175.023 239.339 175.516C240.626 176.571 242.209 176.805 242.209 176.805C242.209 176.805 243.132 175.619 243.349 173.788C243.478 172.997 243.981 172.397 244.732 172.265C245.483 172.133 246.193 171.753 246.78 171.138C248.329 169.585 248.479 167.34 247.318 166.007Z" fill="#95BD59"/>
<path d="M240.766 170.43C239.812 168.286 239.839 168.452 239.604 168.065L240.729 165.474C240.911 165.014 240.271 164.783 240.088 165.243L239.217 167.277C238.166 165.065 237.557 163.973 236.352 161.873C236.985 164.159 237.273 165.392 238.003 167.746C236.444 167.162 235.736 166.515 235.483 167.073C235.23 167.63 236.178 167.636 238.236 168.646C238.402 169.131 238.374 168.964 239.077 171.152L237.324 170.431C236.865 170.254 236.625 170.895 237.084 171.071L239.394 172.038C240.801 175.899 241.132 176.868 243.043 180.128L244.006 179.704C243.716 178.984 244.123 178.315 240.999 171.33C241.717 169.408 242.388 168.778 241.832 168.533C241.735 168.464 241.342 169.217 240.766 170.43Z" fill="#B2C762"/>
<path d="M214.927 170.259C214.511 170.332 214.191 170.473 213.871 170.615C213.092 171.092 211.955 170.951 211.264 170.391C211.167 170.322 211.071 170.254 210.974 170.186C207.794 168.017 203.674 167.974 201.804 170.177C201.595 170.469 201.385 170.762 201.259 171.039C201.007 171.595 200.477 172.029 199.894 172.131C197.325 172.667 195.348 174.208 194.922 176.328C194.482 178.365 195.679 180.456 197.891 181.942C198.472 182.351 198.733 182.902 198.757 183.58C198.728 183.926 198.865 184.242 198.919 184.574C199.78 187.235 203.616 188.692 207.407 187.77C207.491 187.756 207.657 187.726 207.741 187.712C208.643 187.468 209.71 187.707 210.262 188.462C210.482 188.764 210.773 188.969 211.063 189.174C212.764 190.153 215.21 189.383 216.536 187.531C217.095 186.751 217.39 185.932 217.352 185.172C217.384 184.314 217.956 183.617 218.776 183.388C220.568 182.818 221.796 181.409 221.796 181.409C221.796 181.409 221.193 179.811 219.701 178.539C219.01 177.978 218.792 177.164 219.087 176.346C219.396 175.61 219.498 174.654 219.266 173.758C218.889 171.438 216.926 169.908 214.927 170.259Z" fill="#95BD59"/>
<path d="M214.963 179.064C212.431 178.741 212.597 178.712 211.988 178.648C210.459 176.617 210.297 175.625 209.672 175.989C209.131 176.339 210.001 176.952 210.95 178.574C207.463 178.161 205.913 178.091 204.196 178.051C205.731 178.548 207.266 179.046 210.668 179.984C209.224 181.087 208.157 181.358 208.501 181.894C208.845 182.429 209.389 181.569 211.65 180.238C212.19 180.399 212.01 180.345 214.5 180.932C213.291 181.909 212.294 182.083 212.638 182.618C212.982 183.154 213.608 182.279 215.551 181.089C222.911 182.697 222.414 182.274 225.362 182.525L225.601 181.377C224.979 181.23 224.165 180.436 215.918 179.153C214.513 177.356 214.351 176.364 213.809 176.713C213.378 177.214 214.235 177.745 214.963 179.064Z" fill="#B2C762"/>
<path d="M231.6 169.432C235.618 174.106 234.619 181.621 229.291 186.222C223.962 190.823 216.335 190.79 212.317 186.116C208.299 181.441 209.298 173.927 214.627 169.326C219.955 164.725 227.582 164.758 231.6 169.432Z" fill="#EADFD1"/>
<path d="M227.765 184.54C231.397 181.373 232.824 177.045 230.951 174.873C229.079 172.701 224.616 173.508 220.984 176.676C217.351 179.843 215.925 184.171 217.797 186.342C219.67 188.514 224.133 187.707 227.765 184.54Z" fill="#D1C3B4"/>
<path d="M232.838 183.779C235.381 186.751 234.803 188.987 233.09 190.568C231.28 192.08 229.016 192.39 226.473 189.418C223.93 186.446 221.978 181.32 223.789 179.808C225.405 178.159 230.198 180.738 232.838 183.779Z" fill="#E7E2D5"/>
<path d="M292.864 166.406C292.217 172.407 286.169 176.792 279.377 176.101C272.586 175.411 267.587 169.97 268.316 163.955C268.963 157.954 275.011 153.569 281.803 154.26C288.594 154.95 293.593 160.391 292.864 166.406Z" fill="#EADFD1"/>
<path d="M288.672 169.538C288.357 172.32 284.305 174.222 279.693 173.749C274.998 173.291 271.488 170.665 271.79 167.8C272.105 165.018 276.158 163.116 280.77 163.589C285.479 164.13 288.988 166.756 288.672 169.538Z" fill="#D1C3B4"/>
<path d="M283.57 176.857C283.167 180.688 281.121 181.814 278.857 181.612C276.594 181.409 274.891 179.912 275.294 176.081C275.697 172.251 278.174 167.46 280.438 167.662C282.701 167.865 283.974 173.027 283.57 176.857Z" fill="#E7E2D5"/>
<path d="M303.398 168.213C304.746 167.55 305.472 166.229 305.324 164.804C305.311 164.721 305.284 164.555 305.27 164.472C305.073 161.69 303.917 159.332 301.731 158.008C297.442 155.344 290.776 158.045 286.967 164.086C283.494 169.558 283.498 175.872 286.745 178.974C287.353 179.55 288.283 179.473 288.867 178.859C293.529 174.375 298.314 170.637 303.398 168.213Z" fill="#DB5955"/>
<path d="M292.945 170.813C295.14 167.445 298.41 165.422 301.337 165.504C301.85 165.499 302.24 165.26 302.519 164.871C302.798 164.481 302.717 163.983 302.47 163.516C302.029 162.911 301.505 162.321 300.84 161.927C297.604 159.938 292.71 161.991 289.844 166.5C287.733 169.853 287.313 173.592 288.577 176.097C288.825 176.565 289.392 176.891 289.975 176.789C290.558 176.687 291.004 176.267 291.077 175.658C291.334 174.079 291.924 172.441 292.945 170.813Z" fill="#BC1B2C"/>
<path d="M299.768 163.471C299.725 163.735 299.446 164.126 299.237 164.419C299.167 164.517 299.084 164.531 299 164.546C298.917 164.56 298.903 164.477 298.806 164.409C298.752 164.076 298.67 163.578 298.713 163.314C298.826 162.953 299.118 162.645 299.382 162.684C299.729 162.709 299.881 163.11 299.768 163.471Z" fill="#E7C644"/>
<path d="M296.714 164.082C296.838 164.317 296.849 164.913 296.834 165.343C296.848 165.427 296.778 165.524 296.694 165.539C296.611 165.553 296.527 165.568 296.43 165.499C296.126 165.211 295.71 164.77 295.586 164.536C295.435 164.135 295.52 163.607 295.84 163.465C296.091 163.422 296.479 163.696 296.714 164.082Z" fill="#E7C644"/>
<path d="M294.086 165.734C294.293 165.954 294.472 166.521 294.54 166.936C294.553 167.019 294.567 167.102 294.497 167.2C294.427 167.298 294.344 167.312 294.247 167.244C293.873 167.053 293.318 166.808 293.111 166.588C292.793 166.216 292.795 165.703 293.018 165.493C293.324 165.269 293.768 165.362 294.086 165.734Z" fill="#E7C644"/>
<path d="M291.859 167.746C292.052 167.883 292.48 168.405 292.715 168.791C292.728 168.874 292.742 168.957 292.672 169.055C292.602 169.152 292.519 169.167 292.436 169.181C291.992 169.088 291.382 169.024 291.175 168.804C290.788 168.53 290.637 168.13 290.846 167.837C290.958 167.476 291.471 167.472 291.859 167.746Z" fill="#E7C644"/>
<path d="M290.296 170.67C290.476 170.724 290.876 171.08 291.083 171.3C291.18 171.368 291.194 171.451 291.124 171.549C291.137 171.632 291.054 171.646 290.971 171.661C290.638 171.719 290.125 171.723 289.932 171.586C289.572 171.479 289.338 171.093 289.477 170.898C289.603 170.621 289.922 170.48 290.296 170.67Z" fill="#E7C644"/>
<path d="M289.494 173.55C289.673 173.603 289.95 173.725 290.143 173.862C290.143 173.862 290.24 173.93 290.17 174.028C290.184 174.111 290.101 174.125 290.101 174.125C289.851 174.169 289.532 174.31 289.352 174.256C289.089 174.217 288.882 173.997 288.938 173.817C288.995 173.637 289.23 173.51 289.494 173.55Z" fill="#E7C644"/>
<path d="M255.763 164.847C254.234 162.299 251.356 160.925 248.058 160.649C247.795 160.609 247.448 160.584 247.185 160.545C245.772 160.28 244.425 160.942 243.865 162.234C241.489 167.597 236.906 173.602 230.602 180.077C229.794 180.901 229.831 182.174 230.646 182.97C234.5 186.647 241.931 186.543 248.378 182.516C255.673 177.914 258.919 170.011 255.763 164.847Z" fill="#DB5955"/>
<path d="M240.666 175.671C244.783 173.074 247.146 169.167 247.093 165.683C247.082 165.089 247.418 164.519 247.891 164.266C248.363 164.012 249.043 163.978 249.527 164.319C250.287 164.782 250.908 165.44 251.376 166.209C253.798 170.043 251.329 175.928 245.891 179.353C241.843 181.853 237.375 182.296 234.304 180.791C233.653 180.479 233.379 179.846 233.438 179.154C233.58 178.448 234.096 177.932 234.775 177.897C236.704 177.644 238.719 176.864 240.666 175.671Z" fill="#BC1B2C"/>
<path d="M249.468 167.4C249.218 167.444 248.677 167.794 248.288 168.032C248.205 168.046 248.149 168.227 248.163 168.309C248.176 168.392 248.273 168.46 248.369 168.529C248.812 168.622 249.338 168.7 249.671 168.642C250.17 168.555 250.448 168.166 250.394 167.835C250.423 167.489 249.967 167.313 249.468 167.4Z" fill="#E7C644"/>
<path d="M248.737 171.207C248.46 171.085 247.684 171.05 247.171 171.054C247.088 171.068 246.921 171.098 246.948 171.263C246.975 171.429 246.906 171.527 247.002 171.595C247.32 171.966 247.831 172.474 248.191 172.582C248.744 172.826 249.23 172.656 249.426 172.28C249.538 171.92 249.29 171.451 248.737 171.207Z" fill="#E7C644"/>
<path d="M246.787 174.367C246.497 174.162 245.859 173.931 245.319 173.77C245.222 173.701 245.069 173.813 244.986 173.828C244.902 173.843 244.93 174.009 244.957 174.175C245.205 174.644 245.48 175.279 245.77 175.484C246.171 175.841 246.782 175.905 247.074 175.598C247.367 175.29 247.188 174.724 246.787 174.367Z" fill="#E7C644"/>
<path d="M244.326 177.016C244.105 176.713 243.523 176.302 243.135 176.028C243.038 175.959 242.955 175.974 242.788 176.003C242.718 176.101 242.648 176.198 242.662 176.282C242.743 176.78 242.866 177.528 243.087 177.831C243.418 178.286 243.973 178.531 244.28 178.306C244.669 178.067 244.658 177.471 244.326 177.016Z" fill="#E7C644"/>
<path d="M240.868 178.809C240.744 178.574 240.412 178.119 240.108 177.831C240.011 177.762 239.927 177.777 239.844 177.791C239.76 177.806 239.69 177.904 239.704 177.987C239.688 178.417 239.617 179.028 239.741 179.262C239.892 179.663 240.28 179.938 240.614 179.879C240.934 179.738 241.033 179.293 240.868 178.809Z" fill="#E7C644"/>
<path d="M237.451 179.825C237.424 179.658 237.189 179.272 237.065 179.037C237.051 178.954 236.968 178.969 236.885 178.983C236.801 178.998 236.801 178.998 236.731 179.096C236.689 179.359 236.59 179.804 236.617 179.97C236.671 180.303 236.879 180.523 237.129 180.479C237.366 180.352 237.492 180.074 237.451 179.825Z" fill="#E7C644"/>
<path d="M273.858 173.289C273.85 166.55 268.36 161.16 261.596 161.251C254.832 161.341 249.355 166.878 249.363 173.617C249.372 180.355 254.862 185.745 261.626 185.655C268.39 185.564 273.867 180.028 273.858 173.289Z" fill="#6EAC69"/>
<path d="M272.575 174.061C272.994 167.934 268.428 162.684 262.377 162.335C256.326 161.985 251.081 166.67 250.662 172.797C250.243 178.924 254.809 184.174 260.86 184.523C266.911 184.872 272.156 180.188 272.575 174.061Z" fill="#E7FFA8"/>
<path d="M266.648 172.571C267.095 175.309 265.213 177.943 262.465 178.423C259.717 178.903 257.102 177.056 256.655 174.317C256.207 171.579 258.09 168.945 260.838 168.465C263.586 167.984 266.2 169.832 266.648 172.571Z" fill="#B4D16F"/>
<path d="M261.468 176.475C261.413 176.143 261.568 175.517 261.667 175.072C261.654 174.989 261.807 174.877 261.891 174.862C261.974 174.848 262.071 174.916 262.168 174.985C262.403 175.371 262.748 175.909 262.803 176.242C262.884 176.741 262.618 177.214 262.285 177.273C261.867 177.346 261.563 177.057 261.468 176.475Z" fill="#E7FFA8"/>
<path d="M260.513 170.729C260.568 171.062 260.913 171.6 261.148 171.986C261.162 172.069 261.342 172.123 261.426 172.109C261.509 172.094 261.579 171.996 261.649 171.899C261.748 171.454 261.903 170.828 261.849 170.496C261.767 169.997 261.366 169.64 261.032 169.698C260.614 169.771 260.432 170.231 260.513 170.729Z" fill="#E7FFA8"/>
<path d="M263.654 175.754C263.364 175.549 263.019 175.011 262.784 174.625C262.771 174.542 262.757 174.459 262.827 174.362C262.897 174.264 262.98 174.25 263.063 174.235C263.507 174.328 264.13 174.476 264.421 174.681C264.808 174.955 264.973 175.438 264.764 175.731C264.555 176.023 264.041 176.028 263.654 175.754Z" fill="#E7FFA8"/>
<path d="M258.909 172.373C259.2 172.578 259.823 172.725 260.267 172.818C260.35 172.804 260.433 172.789 260.503 172.692C260.573 172.594 260.559 172.511 260.546 172.428C260.311 172.042 259.967 171.505 259.676 171.3C259.289 171.026 258.776 171.031 258.567 171.323C258.261 171.547 258.425 172.031 258.909 172.373Z" fill="#E7FFA8"/>
<path d="M264.678 173.69C264.346 173.748 263.723 173.601 263.28 173.508C263.197 173.523 263.087 173.372 263.073 173.289C263.06 173.206 263.129 173.109 263.199 173.011C263.588 172.773 264.129 172.423 264.462 172.365C264.961 172.278 265.43 172.537 265.485 172.868C265.539 173.199 265.177 173.603 264.678 173.69Z" fill="#E7FFA8"/>
<path d="M258.868 174.689C259.201 174.631 259.743 174.281 260.131 174.043C260.214 174.028 260.27 173.848 260.257 173.765C260.243 173.682 260.147 173.614 260.05 173.546C259.607 173.453 258.984 173.306 258.652 173.364C258.153 173.451 257.791 173.855 257.845 174.186C257.9 174.518 258.37 174.776 258.868 174.689Z" fill="#E7FFA8"/>
<path d="M263.892 171.514C263.683 171.807 263.141 172.157 262.752 172.396C262.669 172.411 262.585 172.425 262.488 172.357C262.392 172.288 262.378 172.205 262.364 172.122C262.463 171.678 262.618 171.054 262.827 170.761C263.106 170.371 263.592 170.201 263.883 170.406C264.16 170.528 264.241 171.026 263.892 171.514Z" fill="#E7FFA8"/>
<path d="M260.503 176.293C260.712 176.001 260.867 175.376 260.966 174.932C260.952 174.849 260.938 174.766 260.842 174.698C260.745 174.629 260.662 174.644 260.578 174.658C260.189 174.897 259.647 175.248 259.438 175.541C259.159 175.931 259.157 176.443 259.447 176.649C259.738 176.854 260.224 176.684 260.503 176.293Z" fill="#E7FFA8"/>
<path d="M239.632 227.706L282.16 220.333C284.402 219.944 286.536 218.892 288.241 217.317C300.402 206.081 306.942 189.251 304.336 171.873L203.166 189.412C206.354 206.689 217.921 220.38 232.922 226.907C235.037 227.82 237.389 228.095 239.632 227.706Z" fill="white"/>
<path d="M304.763 182.201C304.793 181.351 304.822 180.5 304.838 179.567L205.091 196.725C205.393 197.518 205.709 198.394 206.012 199.188L304.763 182.201Z" fill="#ABE0E3"/>
<path d="M300.314 200.556C302.009 196.867 303.248 193.003 303.962 189.059L209.007 205.454C211.046 209.007 213.446 212.158 216.15 215.087L300.314 200.556Z" fill="#ABE0E3"/>
<path d="M171.754 206.255C171.115 205.605 170.293 205.234 169.38 205.234C168.466 205.234 167.553 205.605 167.005 206.255C166.457 206.904 166 207.832 166 208.668C166 209.596 166.365 210.524 167.005 211.08C167.644 211.73 168.466 212.101 169.38 212.101C170.293 212.101 171.206 211.73 171.754 211.08C172.394 210.524 172.759 209.503 172.759 208.668C172.668 207.832 172.394 206.904 171.754 206.255Z" fill="#FFF1CE"/>
<path d="M180.754 141.23C180.115 140.581 179.293 140.209 178.38 140.209C177.466 140.209 176.553 140.581 176.005 141.23C175.457 141.88 175 142.808 175 143.643C175 144.571 175.365 145.499 176.005 146.056C176.644 146.706 177.466 147.077 178.38 147.077C179.293 147.077 180.206 146.706 180.754 146.056C181.394 145.499 181.759 144.478 181.759 143.643C181.668 142.808 181.394 141.88 180.754 141.23Z" fill="#FFF1CE"/>
<path d="M248.754 123.958C248.115 123.309 247.293 122.938 246.38 122.938C245.466 122.938 244.553 123.309 244.005 123.958C243.457 124.608 243 125.536 243 126.371C243 127.299 243.365 128.227 244.005 128.784C244.644 129.434 245.466 129.805 246.38 129.805C247.293 129.805 248.206 129.434 248.754 128.784C249.394 128.227 249.759 127.206 249.759 126.371C249.668 125.536 249.394 124.608 248.754 123.958Z" fill="#FFF1CE"/>
<path d="M47.7544 268.231C47.1151 267.582 46.293 267.21 45.3796 267.21C44.4662 267.21 43.5528 267.582 43.0047 268.231C42.4567 268.881 42 269.809 42 270.644C42 271.572 42.3654 272.5 43.0047 273.057C43.6441 273.707 44.4662 274.078 45.3796 274.078C46.293 274.078 47.2064 273.707 47.7544 273.057C48.3938 272.5 48.7592 271.479 48.7592 270.644C48.6678 269.809 48.3938 268.881 47.7544 268.231Z" fill="#FFF1CE"/>
<path d="M142.736 76.7972C132.853 81.77 121.743 84.2083 110.484 83.5695C104.05 83.2045 99.0971 77.5911 99.5173 71.0753C99.9374 64.5595 105.529 59.4942 111.963 59.8592C126.306 60.6352 140.142 53.6732 148.26 41.5953C151.888 36.167 159.233 34.7224 164.563 38.345C169.893 41.9675 171.252 49.3891 167.624 54.8174C161.184 64.3622 152.619 71.8244 142.736 76.7972Z" fill="#EDC75E"/>
<path d="M143.491 78.3457C132.085 84.084 119.365 86.8815 106.366 86.1054C100.828 85.7405 96.627 80.9888 96.9044 75.3348C97.3154 69.7261 102.049 65.4315 107.634 65.6608C126.484 66.7567 144.807 57.5392 155.417 41.6229C158.501 36.9204 164.815 35.6573 169.478 38.8262C174.096 41.9046 175.287 48.2831 172.113 53.0308C164.813 64.0185 154.809 72.6525 143.491 78.3457Z" fill="#E18668"/>
<path d="M143.506 78.3726C154.909 72.6384 164.82 64.0547 172.117 53.0726C172.977 51.8524 173.437 50.4963 173.763 49.0949C173.055 48.3258 172.301 47.6922 171.368 47.149C165.858 43.8444 158.646 45.7835 155.332 51.3877C147.976 63.8618 134.587 71.7197 120.243 71.8451C113.764 71.8405 108.531 77.1721 108.469 83.7283C108.461 84.6325 108.498 85.4012 108.67 86.2152C120.819 86.6308 132.732 83.7907 143.506 78.3726Z" fill="#DB5955"/>
<path d="M149.376 90.4627C139.493 95.4356 128.383 97.8738 117.124 97.235C110.69 96.87 105.737 91.2567 106.157 84.7408C106.577 78.225 112.169 73.1597 118.603 73.5247C132.946 74.3007 146.781 67.3387 154.899 55.2608C158.528 49.8325 165.873 48.388 171.203 52.0105C176.532 55.633 177.892 63.0547 174.263 68.483C167.824 78.0277 159.258 85.4899 149.376 90.4627Z" fill="#EDC75E"/>
<path d="M137.468 62.2184L136.106 59.4027C135.114 59.9018 134.123 60.4008 133.132 60.8999L134.495 63.7155C134.89 64.533 135.829 64.8512 136.64 64.4429C137.541 63.9892 137.864 63.0358 137.468 62.2184Z" fill="#DB5955"/>
<path d="M114.388 69.3704C115.199 68.962 115.523 68.0086 115.127 67.1911L114.38 65.647C113.169 65.6919 112.001 65.8276 110.746 65.7817L112.109 68.5975C112.639 69.4605 113.577 69.7787 114.388 69.3704Z" fill="#DB5955"/>
<path d="M145.527 58.1725C146.338 57.7642 146.661 56.8109 146.265 55.9936L144.991 53.3599C144.131 54.1313 143.228 54.812 142.281 55.4018L143.292 57.4906C143.687 58.308 144.716 58.5808 145.527 58.1725Z" fill="#DB5955"/>
<path d="M126.427 67.7516C127.238 67.3433 127.561 66.3901 127.165 65.5727L126.155 63.4839C125.076 63.8013 123.997 64.1187 122.918 64.436L124.192 67.0697C124.678 67.8417 125.616 68.1599 126.427 67.7516Z" fill="#DB5955"/>
<path d="M154.112 49.4478C154.923 49.0395 155.246 48.0861 154.851 47.2686L153.488 44.453C152.717 45.4062 151.945 46.3594 151.174 47.3126L151.921 48.8567C152.363 49.5379 153.301 49.8561 154.112 49.4478Z" fill="#DB5955"/>
<path d="M137.338 65.648C135.992 66.3245 134.472 66.4135 133.136 65.9606C132.024 65.508 130.724 66.0489 130.177 67.223C129.584 68.5325 128.37 69.48 126.936 69.9757C125.502 70.4714 123.985 70.3346 122.741 69.6107C121.674 69.0226 120.376 69.3377 119.608 70.2857C118.838 71.4595 117.446 72.2714 115.97 72.4508C114.495 72.6303 112.979 72.2676 111.871 71.3632C111.162 70.8205 111.082 69.7363 111.625 69.014C112.168 68.2917 113.24 68.2023 113.95 68.745C114.349 69.1067 114.973 69.2427 115.599 69.1529C116.225 69.0631 116.719 68.7021 116.991 68.341C118.754 65.9935 121.843 65.2283 124.331 66.6759C124.819 66.9925 125.4 67.0382 125.982 66.858C126.564 66.6778 126.969 66.3619 127.243 65.7749C128.562 63.2012 131.521 61.9389 134.236 62.935C135.305 63.2973 136.651 62.6209 136.929 61.5822C137.803 58.7822 140.587 57.1584 143.396 57.6577C143.887 57.7484 144.513 57.6586 145.008 57.2977C145.502 56.9367 145.82 56.4401 145.87 55.8529C146.254 52.9622 148.819 50.8864 151.632 50.934C152.212 50.9797 152.751 50.7091 153.202 50.2578C153.652 49.8064 153.836 49.2645 153.886 48.6773C153.894 47.7739 154.617 46.9614 155.51 46.9622C156.403 46.9629 157.2 47.6864 157.192 48.5898C157.223 50.0353 156.585 51.4803 155.547 52.5636C154.51 53.6468 153.076 54.1425 151.647 54.1865C150.396 54.1402 149.405 55.088 149.215 56.3075C149.023 57.7528 148.207 59.0621 146.949 59.9193C145.69 60.7765 144.302 61.1367 142.831 60.8644C141.627 60.6827 140.504 61.3594 140.091 62.5787C139.588 63.8431 138.594 65.0167 137.338 65.648Z" fill="#EDC75E"/>
<path d="M258.415 260.988C261.127 259.311 264.243 258.063 267.335 256.999C272.667 255.033 277.897 253.145 283.23 251.178C295.634 246.646 308.232 242.048 321.301 239.475C325.275 238.719 328.621 237.13 332.601 237.029C309.925 248.816 284.355 256.654 258.415 260.988Z" fill="#7CA661"/>
<path d="M253.596 262.593C261.428 259.195 269.025 255.483 276.488 251.379C279.872 249.512 283.359 247.567 286.284 244.982C289.414 242.239 291.891 238.845 294.682 235.868C299.715 230.585 305.885 226.489 312.043 222.484C311.12 228.804 307.912 234.247 303.441 238.766C298.879 243.273 293.452 246.631 287.971 249.702C284.883 251.423 281.807 253.052 278.508 254.276C276.586 254.85 258.166 262.947 253.596 262.593Z" fill="#AEDC90"/>
<path d="M268.051 255.907C268.051 255.907 267.284 258.228 268.263 259.203C268.263 259.203 250.35 266.332 246.327 264.654C242.395 262.988 244.816 260.71 247.341 261.154C249.866 261.598 263.304 258.329 268.051 255.907Z" fill="white"/>
</svg>
